<?xml version="1.0" encoding="UTF-8" standalone="no"?>
<!DOCTYPE svg PUBLIC "-//W3C//DTD SVG 1.1//EN" "http://www.w3.org/Graphics/SVG/1.1/DTD/svg11.dtd">
<svg width="100%" height="100%" viewBox="0 0 639 247" version="1.1" xmlns="http://www.w3.org/2000/svg" xmlns:xlink="http://www.w3.org/1999/xlink" xml:space="preserve" xmlns:serif="http://www.serif.com/" style="fill-rule:evenodd;clip-rule:evenodd;stroke-linejoin:round;stroke-miterlimit:2;">
    <g transform="matrix(1,0,0,1,-20.7796,-6.64273)">
        <g id="Ebene1" transform="matrix(1,0,0,1,-6.52579,3.23092)">
            <g transform="matrix(3.61948,0,0,3.61948,-158.174,-101.782)">
                <g transform="matrix(32.5153,0,0,32.5153,54.0438,65.8874)">
                    <path d="M0.085,-0.717L0.408,-0.717C0.472,-0.717 0.523,-0.699 0.563,-0.663C0.602,-0.627 0.621,-0.577 0.621,-0.512C0.621,-0.456 0.604,-0.407 0.569,-0.365C0.534,-0.324 0.48,-0.303 0.408,-0.303L0.183,-0.303L0.183,-0L0.085,-0L0.085,-0.717ZM0.523,-0.511C0.523,-0.564 0.503,-0.6 0.464,-0.619C0.443,-0.629 0.413,-0.634 0.376,-0.634L0.183,-0.634L0.183,-0.385L0.376,-0.385C0.42,-0.385 0.455,-0.395 0.482,-0.413C0.509,-0.432 0.523,-0.464 0.523,-0.511Z" style="fill:rgb(0,104,181);fill-rule:nonzero;"/>
                </g>
            </g>
            <g transform="matrix(0.939004,0,0,0.939004,-100.146,51.61)">
                <g transform="matrix(125.333,0,0,125.333,222.705,90.7175)">
                    <path d="M0.41,-0.389C0.455,-0.389 0.491,-0.398 0.518,-0.416C0.544,-0.434 0.558,-0.467 0.558,-0.515C0.558,-0.566 0.539,-0.601 0.502,-0.619C0.482,-0.629 0.456,-0.634 0.422,-0.634L0.185,-0.634L0.185,-0.389L0.41,-0.389ZM0.088,-0.717L0.42,-0.717C0.475,-0.717 0.52,-0.709 0.555,-0.693C0.623,-0.663 0.656,-0.606 0.656,-0.524C0.656,-0.481 0.647,-0.446 0.63,-0.418C0.612,-0.391 0.587,-0.369 0.555,-0.353C0.583,-0.341 0.604,-0.326 0.618,-0.308C0.633,-0.289 0.64,-0.259 0.642,-0.217L0.646,-0.121C0.646,-0.094 0.649,-0.073 0.652,-0.06C0.658,-0.037 0.669,-0.023 0.684,-0.016L0.684,-0L0.564,-0C0.561,-0.006 0.559,-0.014 0.557,-0.024C0.555,-0.034 0.553,-0.053 0.552,-0.081L0.546,-0.2C0.544,-0.247 0.526,-0.278 0.494,-0.294C0.475,-0.303 0.446,-0.308 0.406,-0.308L0.185,-0.308L0.185,-0L0.088,-0L0.088,-0.717Z" style="fill:rgb(0,104,181);fill-rule:nonzero;"/>
                </g>
            </g>
            <g transform="matrix(0.939004,0,0,0.939004,-20.3058,51.2279)">
                <g transform="matrix(125.333,0,0,125.333,222.705,90.7175)">
                    <path d="M0.386,-0.737C0.512,-0.737 0.606,-0.696 0.667,-0.615C0.715,-0.551 0.738,-0.47 0.738,-0.371C0.738,-0.264 0.711,-0.175 0.657,-0.104C0.593,-0.021 0.502,0.021 0.384,0.021C0.273,0.021 0.187,-0.015 0.124,-0.088C0.067,-0.159 0.039,-0.248 0.039,-0.355C0.039,-0.452 0.063,-0.535 0.111,-0.604C0.173,-0.693 0.265,-0.737 0.386,-0.737ZM0.396,-0.066C0.481,-0.066 0.543,-0.097 0.581,-0.158C0.62,-0.219 0.639,-0.29 0.639,-0.37C0.639,-0.454 0.617,-0.522 0.573,-0.573C0.528,-0.625 0.468,-0.65 0.392,-0.65C0.317,-0.65 0.257,-0.625 0.21,-0.574C0.163,-0.523 0.14,-0.448 0.14,-0.349C0.14,-0.269 0.16,-0.202 0.2,-0.148C0.24,-0.093 0.305,-0.066 0.396,-0.066ZM0.389,-0.737" style="fill:rgb(0,104,181);fill-rule:nonzero;"/>
                </g>
            </g>
            <g transform="matrix(0.939004,0,0,0.939004,69.82,51.634)">
                <g transform="matrix(125.333,0,0,125.333,222.705,90.7175)">
                    <path d="M0.074,-0.717L0.213,-0.717L0.419,-0.111L0.624,-0.717L0.761,-0.717L0.761,-0L0.669,-0L0.669,-0.423C0.669,-0.438 0.669,-0.462 0.67,-0.496C0.671,-0.53 0.671,-0.566 0.671,-0.605L0.466,-0L0.37,-0L0.164,-0.605L0.164,-0.583C0.164,-0.565 0.164,-0.539 0.165,-0.503C0.166,-0.467 0.167,-0.44 0.167,-0.423L0.167,-0L0.074,-0L0.074,-0.717Z" style="fill:rgb(0,104,181);fill-rule:nonzero;"/>
                </g>
            </g>
            <g transform="matrix(0.939004,0,0,0.939004,161.286,51.7392)">
                <g transform="matrix(125.333,0,0,125.333,222.705,90.7175)">
                    <path d="M0.085,-0.717L0.608,-0.717L0.608,-0.629L0.18,-0.629L0.18,-0.412L0.576,-0.412L0.576,-0.329L0.18,-0.329L0.18,-0.085L0.616,-0.085L0.616,-0L0.085,-0L0.085,-0.717ZM0.351,-0.717" style="fill:rgb(0,104,181);fill-rule:nonzero;"/>
                </g>
            </g>
            <g transform="matrix(0.939004,0,0,0.939004,236.037,51.5809)">
                <g transform="matrix(125.333,0,0,125.333,222.705,90.7175)">
                    <path d="M0.352,-0.083C0.384,-0.083 0.411,-0.086 0.433,-0.093C0.47,-0.106 0.501,-0.13 0.525,-0.167C0.545,-0.195 0.558,-0.233 0.567,-0.278C0.572,-0.305 0.574,-0.33 0.574,-0.353C0.574,-0.442 0.557,-0.511 0.521,-0.56C0.486,-0.609 0.429,-0.634 0.351,-0.634L0.178,-0.634L0.178,-0.083L0.352,-0.083ZM0.081,-0.717L0.371,-0.717C0.47,-0.717 0.546,-0.682 0.601,-0.612C0.649,-0.549 0.673,-0.468 0.673,-0.37C0.673,-0.293 0.659,-0.225 0.63,-0.163C0.58,-0.054 0.493,-0 0.37,-0L0.081,-0L0.081,-0.717Z" style="fill:rgb(0,104,181);fill-rule:nonzero;"/>
                </g>
            </g>
            <g transform="matrix(0.939004,0,0,0.939004,359.377,51.3866)">
                <g transform="matrix(125.333,0,0,125.333,222.705,90.7175)">
                    <path d="M0.444,-0.294L0.335,-0.611L0.22,-0.294L0.444,-0.294ZM0.285,-0.717L0.395,-0.717L0.655,-0L0.548,-0L0.476,-0.215L0.192,-0.215L0.114,-0L0.015,-0L0.285,-0.717ZM0.335,-0.717" style="fill:rgb(0,104,181);fill-rule:nonzero;"/>
                </g>
            </g>
        </g>
        <g transform="matrix(5.31725,0,0,2.30616,-974.453,-203.638)">
            <rect x="187.171" y="152.638" width="120.07" height="3.99" style="fill:rgb(225,5,14);"/>
        </g>
        <g transform="matrix(1,0,0,1,-6.52579,3.23092)">
            <g transform="matrix(0.645828,0.237402,-0.565223,1.53763,234.295,-166.106)">
                <path d="M565.963,54.532L565.219,109.598L542.932,112.96L543.695,57.884L565.963,54.532Z" style="fill:rgb(225,5,14);"/>
            </g>
            <g transform="matrix(0.645828,0.237402,-0.565223,1.53763,256.408,-166.064)">
                <path d="M565.963,54.532L565.219,109.598L542.932,112.96L543.695,57.884L565.963,54.532Z" style="fill:rgb(225,5,14);"/>
            </g>
            <g transform="matrix(0.897279,0,0,0.914014,41.8701,0.400203)">
                <ellipse cx="599.776" cy="26.651" rx="23.794" ry="23.356" style="fill:rgb(225,5,14);"/>
            </g>
        </g>
        <g transform="matrix(1,0,0,1,-5.25834,3.44907)">
            <g transform="matrix(1,0,0,1,0.366562,0.0703382)">
                <g transform="matrix(0.271373,-0.269675,0.76386,0.76867,334.78,289.725)">
                    <path d="M565.963,54.532L565.219,109.598L542.932,112.96L543.695,57.884L565.963,54.532Z" style="fill:rgb(225,5,14);"/>
                </g>
                <g transform="matrix(0.266342,-0.264675,0.385126,0.387551,382.11,307.679)">
                    <path d="M565.963,54.532L565.219,109.598L542.932,112.96L543.695,57.884L565.963,54.532Z" style="fill:rgb(225,5,14);"/>
                </g>
                <g transform="matrix(0.266342,-0.264675,0.370708,0.373042,358.041,332.69)">
                    <path d="M565.963,54.532L565.219,109.598L542.932,112.96L543.695,57.884L565.963,54.532Z" style="fill:rgb(225,5,14);"/>
                </g>
                <g transform="matrix(1.01223,0,0,1.10815,58.42,-33.5368)">
                    <path d="M510.392,191.81L510.392,238.836L459.328,238.836L459.328,191.81L510.392,191.81ZM502.734,198.805L466.986,198.805L466.986,231.841L502.734,231.841L502.734,198.805Z" style="fill:rgb(225,5,14);"/>
                </g>
            </g>
            <g transform="matrix(1.01223,0,0,1.10815,-10.0817,-33.4665)">
                <rect x="459.328" y="191.81" width="51.064" height="47.026" style="fill:rgb(225,5,14);"/>
            </g>
            <g transform="matrix(1.01223,0,0,1.10815,127.655,-33.4665)">
                <path d="M510.392,191.81L510.392,238.836L459.328,238.836L459.328,191.81L510.392,191.81ZM502.734,198.805L466.986,198.805L466.986,231.841L502.734,231.841L502.734,198.805Z" style="fill:rgb(225,5,14);"/>
            </g>
        </g>
        <g transform="matrix(0.939004,0,0,0.939004,-30.3498,59.1022)">
            <g transform="matrix(125.333,0,0,125.333,68.8486,204.364)">
                <path d="M0.32,-0.439L0.444,-0.41C0.499,-0.397 0.54,-0.379 0.567,-0.357C0.61,-0.324 0.632,-0.275 0.632,-0.21C0.632,-0.145 0.607,-0.09 0.556,-0.047C0.506,-0.003 0.435,0.019 0.343,0.019C0.25,0.019 0.176,-0.003 0.122,-0.046C0.068,-0.088 0.042,-0.147 0.042,-0.222L0.185,-0.222C0.19,-0.189 0.199,-0.165 0.212,-0.148C0.236,-0.119 0.278,-0.104 0.337,-0.104C0.373,-0.104 0.402,-0.108 0.424,-0.116C0.466,-0.131 0.487,-0.159 0.487,-0.199C0.487,-0.223 0.476,-0.241 0.456,-0.254C0.435,-0.267 0.402,-0.278 0.357,-0.288L0.281,-0.305C0.206,-0.322 0.155,-0.34 0.126,-0.36C0.077,-0.394 0.053,-0.445 0.053,-0.516C0.053,-0.581 0.077,-0.634 0.124,-0.677C0.17,-0.719 0.239,-0.741 0.33,-0.741C0.406,-0.741 0.471,-0.721 0.524,-0.68C0.578,-0.64 0.606,-0.582 0.608,-0.505L0.464,-0.505C0.461,-0.549 0.442,-0.579 0.407,-0.598C0.384,-0.61 0.355,-0.616 0.32,-0.616C0.281,-0.616 0.25,-0.608 0.227,-0.592C0.204,-0.577 0.192,-0.555 0.192,-0.527C0.192,-0.501 0.204,-0.482 0.227,-0.469C0.241,-0.461 0.272,-0.451 0.32,-0.439Z" style="fill:rgb(45,45,45);fill-rule:nonzero;"/>
            </g>
            <g transform="matrix(125.333,0,0,125.333,152.445,204.364)">
                <path d="M0.382,-0.259L0.229,-0.259L0.229,-0L0.08,-0L0.08,-0.72L0.393,-0.72C0.465,-0.72 0.523,-0.701 0.566,-0.664C0.609,-0.627 0.63,-0.569 0.63,-0.492C0.63,-0.407 0.609,-0.347 0.566,-0.312C0.523,-0.276 0.462,-0.259 0.382,-0.259ZM0.481,-0.491C0.481,-0.528 0.472,-0.555 0.452,-0.571C0.432,-0.587 0.405,-0.595 0.369,-0.595L0.229,-0.595L0.229,-0.383L0.369,-0.383C0.405,-0.383 0.432,-0.391 0.452,-0.409C0.472,-0.426 0.481,-0.453 0.481,-0.491Z" style="fill:rgb(45,45,45);fill-rule:nonzero;"/>
            </g>
            <g transform="matrix(125.333,0,0,125.333,226.8,204.364)">
                <path d="M0.452,-0.72L0.707,-0L0.544,-0L0.498,-0.148L0.232,-0.148L0.183,-0L0.025,-0L0.282,-0.72L0.452,-0.72ZM0.366,-0.555L0.273,-0.272L0.456,-0.272L0.366,-0.555Z" style="fill:rgb(45,45,45);fill-rule:nonzero;"/>
            </g>
            <g transform="matrix(125.333,0,0,125.333,317.312,204.364)">
                <path d="M0.378,0.02C0.274,0.02 0.193,-0.013 0.134,-0.08C0.075,-0.146 0.045,-0.238 0.045,-0.354C0.045,-0.48 0.079,-0.576 0.146,-0.645C0.205,-0.704 0.279,-0.733 0.37,-0.733C0.491,-0.733 0.579,-0.694 0.635,-0.614C0.666,-0.57 0.683,-0.525 0.685,-0.48L0.535,-0.48C0.525,-0.514 0.512,-0.541 0.497,-0.558C0.47,-0.589 0.429,-0.605 0.375,-0.605C0.321,-0.605 0.278,-0.583 0.246,-0.539C0.215,-0.495 0.199,-0.432 0.199,-0.352C0.199,-0.271 0.215,-0.21 0.249,-0.17C0.282,-0.13 0.325,-0.11 0.376,-0.11C0.429,-0.11 0.469,-0.127 0.497,-0.162C0.512,-0.18 0.525,-0.208 0.535,-0.245L0.684,-0.245C0.671,-0.167 0.637,-0.103 0.584,-0.054C0.53,-0.005 0.462,0.02 0.378,0.02Z" style="fill:rgb(45,45,45);fill-rule:nonzero;"/>
            </g>
            <g transform="matrix(125.333,0,0,125.333,407.824,204.364)">
                <path d="M0.626,-0.129L0.626,-0L0.081,-0L0.081,-0.72L0.608,-0.72L0.608,-0.592L0.228,-0.592L0.228,-0.439L0.577,-0.439L0.577,-0.314L0.228,-0.314L0.228,-0.129L0.626,-0.129Z" style="fill:rgb(45,45,45);fill-rule:nonzero;"/>
            </g>
        </g>
    </g>
</svg>
